<svg width="1213" height="262" viewBox="0 0 1213 262" fill="none" xmlns="http://www.w3.org/2000/svg">
<path d="M218.682 41.7803L185.182 82.2804C146.115 70.1094 105.781 53.2401 68.9069 98.4005C60.1572 109.117 53.6311 122.521 55.8082 136.183C62.5916 178.751 125.959 205.282 194.733 109.5L229.958 138.5C130.458 296.5 -35.3167 212.28 6.68313 101.28C40.4445 12.0531 160.016 9.7803 218.682 41.7803Z" fill="#B9B9B9" fill-opacity="0.3"/>
<path d="M1188.65 3.027C1187 12.372 1189.02 28.3864 1210.33 17.6837" stroke="#B1B1B1" stroke-width="9"/>
<path d="M1195.56 46.7194C1194.73 37.2655 1188.63 22.321 1170.82 38.1743" stroke="#B1B1B1" stroke-width="9"/>
<path d="M213.975 252.189C207.544 245.211 193.58 237.114 189.174 260.55" stroke="#B1B1B1" stroke-width="9"/>
<path d="M832 217H758.5V35.5C839 32.5 900.5 46.5 912.5 134C922.1 204 833.833 163.167 788.5 134L832 217Z" fill="#B9B9B9" fill-opacity="0.3"/>
<path d="M860.958 44H781.458V231.5H860.958L811.958 139.5C840.958 162.5 905.658 201.6 932.458 174C965.958 139.5 842.458 64.5 811.958 76C781.458 87.5 936.458 175 943.958 132C951.458 89 922.958 69 885.458 44" stroke="#4D4D4D" stroke-width="18" stroke-linecap="round" stroke-linejoin="round"/>
<path d="M495.799 216.293H570.299L536.299 129.793H675.299L646.299 216.293H716.799C731.799 129.793 749.299 44.2929 666.299 20.7929C637.447 12.6239 611.299 34.4596 602.299 44.2929C602.299 36.4596 591.699 20.7929 549.299 20.7929C469.699 39.1929 480.466 158.793 495.799 216.293Z" fill="#B9B9B9" fill-opacity="0.3"/>
<path d="M541.556 99.5731L592.056 230.073H519.556C505.056 169.74 494.156 45.8731 566.556 33.0731C657.056 17.0731 664.556 185.073 630.556 198.573C596.556 212.073 552.958 48.5 675.458 35C764.859 30.4269 758.223 158.406 737.056 230.073H664.556L709.056 95.0731" stroke="#4D4D4D" stroke-width="18" stroke-linecap="round" stroke-linejoin="round"/>
<path d="M962.609 36.2698V101.27L1090.61 92.2698V112.27C948.109 91.2698 930.609 202.77 962.609 208.77C1043.41 222.37 1088.61 186.436 1101.11 166.77L1094.61 213.27C1121.94 213.103 1176.61 211.97 1176.61 208.77C1169.81 71.5698 1185.61 15.2698 962.609 36.2698Z" fill="#B9B9B9" fill-opacity="0.3"/>
<path d="M459.125 27.3572L411.125 37.8572C415.125 131.357 384.625 183.857 336.125 168.357C286.125 117.157 353.958 58.0239 394.125 34.8572C337.27 -17.5428 287.102 41.0239 269.125 76.8572C250.625 124.191 241.825 219.557 354.625 222.357C467.425 225.157 470.125 94.5238 459.125 27.3572Z" fill="#B9B9B9" fill-opacity="0.3"/>
<path d="M490.683 39.2979C433.016 44.7979 328.957 67.2978 336.183 161.798C343.957 206.5 428.682 192.798 419.682 67.2978C419.682 30.5001 345.92 -3.50003 294.683 77.2978C283.457 94.9999 215.457 246.5 387.682 232.569C427.457 226.5 495.958 203.5 474.958 77.2978" stroke="#4D4D4D" stroke-width="18" stroke-linecap="round" stroke-linejoin="round"/>
<path d="M253.958 158.5C217.958 78 53.4627 70.158 67.6599 151.158C73.9268 186.913 143.16 199.158 237.66 70.158C232.66 29.658 34.6598 4.15798 15.6598 141.658C8.45773 248 147.458 283 229.458 171.5" stroke="#4D4D4D" stroke-width="19" stroke-linecap="round" stroke-linejoin="round"/>
<path d="M1118.96 85L974.458 122V46.5C1039.79 35.5 1174.6 33.7184 1183.46 115.5C1189.96 175.5 1189.96 228.5 1189.96 228.5H1109.96L1138.96 180C1098.79 211.167 987.457 260 964.458 204C951.458 163.5 1068.46 93 1118.96 136C1138.96 155.5 1078.96 186 1031.46 195" stroke="#4D4D4D" stroke-width="18" stroke-linecap="round" stroke-linejoin="round"/>
</svg>
