<svg width="517" height="517" viewBox="0 0 517 517" fill="none" xmlns="http://www.w3.org/2000/svg">
<path fill-rule="evenodd" clip-rule="evenodd" d="M392 18H125C65.9055 18 18 65.9055 18 125V392C18 451.094 65.9055 499 125 499H392C451.094 499 499 451.094 499 392V125C499 65.9055 451.094 18 392 18ZM125 0C55.9644 0 0 55.9644 0 125V392C0 461.036 55.9644 517 125 517H392C461.036 517 517 461.036 517 392V125C517 55.9644 461.036 0 392 0H125Z" fill="black"/>
<path d="M186.111 359.963C186.675 355.021 183.522 350.416 178.711 349.155C173.9 347.894 168.893 350.361 166.961 354.944C158.34 375.396 135.761 386.937 113.664 381.147C89.4222 374.794 74.9201 349.991 81.2732 325.749C87.064 303.652 108.196 289.636 130.247 292.154C135.189 292.718 139.794 289.564 141.055 284.753C142.316 279.942 139.849 274.935 135.266 273.003C114.814 264.382 103.272 241.803 109.063 219.707C114.854 197.61 135.986 183.594 158.037 186.111C162.979 186.675 167.584 183.522 168.845 178.711C170.106 173.899 167.639 168.893 163.056 166.961C142.604 158.34 131.063 135.761 136.853 113.664C143.206 89.4221 168.009 74.9201 192.251 81.2731C214.348 87.0639 228.364 108.196 225.846 130.247C225.282 135.189 228.436 139.794 233.247 141.055C238.058 142.315 243.065 139.849 244.997 135.266C253.618 114.814 276.197 103.272 298.293 109.063C320.39 114.854 334.406 135.986 331.889 158.037C331.325 162.979 334.478 167.584 339.289 168.845C344.101 170.106 349.107 167.639 351.039 163.056C359.66 142.604 382.239 131.063 404.336 136.853C428.578 143.206 443.08 168.009 436.727 192.251C430.453 216.193 406.181 230.636 382.231 224.869C376.938 223.594 371.597 226.789 370.217 232.056L370.211 232.078C368.831 237.345 371.918 242.748 377.156 244.234C400.856 250.954 414.925 275.445 408.65 299.387C403.096 320.58 383.426 334.346 362.364 333.208C357.622 332.952 353.354 336.065 352.15 340.658C350.947 345.252 353.139 350.058 357.397 352.16C376.311 361.498 386.701 383.142 381.147 404.336C374.794 428.578 349.991 443.08 325.749 436.727C303.652 430.936 289.636 409.804 292.154 387.753C292.718 382.811 289.564 378.206 284.753 376.945C279.942 375.684 274.935 378.151 273.003 382.734C264.382 403.186 241.803 414.728 219.707 408.937C197.61 403.146 183.594 382.014 186.111 359.963Z" stroke="black" stroke-width="20" stroke-linejoin="round"/>
</svg>
