<svg width="517" height="517" viewBox="0 0 517 517" fill="none" xmlns="http://www.w3.org/2000/svg">
<rect width="517" height="517" rx="125" fill="#F59E0B"/>
<path d="M111.129 390.82C138.106 397.89 165.651 383.798 176.176 358.829C173.102 385.751 190.195 411.54 217.172 418.61C244.148 425.68 271.693 411.588 282.218 386.619C279.144 413.541 296.238 439.331 323.214 446.4C352.799 454.153 383.067 436.455 390.82 406.871C397.602 380.993 384.91 354.591 361.824 343.193C387.533 344.583 411.542 327.8 418.324 301.922C425.981 272.702 408.812 242.816 379.884 234.613L379.89 234.591C409.123 241.63 438.743 224.005 446.4 194.786C454.153 165.201 436.455 134.933 406.871 127.18C379.894 120.11 352.349 134.202 341.824 159.171C344.898 132.249 327.805 106.459 300.828 99.3899C273.852 92.3203 246.307 106.412 235.782 131.381C238.856 104.459 221.762 78.6694 194.786 71.5998C165.201 63.8467 134.933 81.5446 127.18 111.129C120.11 138.106 134.202 165.651 159.171 176.176C132.249 173.102 106.459 190.195 99.3899 217.172C92.3203 244.148 106.412 271.693 131.381 282.218C104.459 279.144 78.6694 296.238 71.5998 323.214C63.8467 352.799 81.5446 383.067 111.129 390.82Z" fill="#1F1F1F"/>
</svg>
