<svg width="180" height="180" viewBox="0 0 180 180" fill="none" xmlns="http://www.w3.org/2000/svg">
<path d="M0 41.7795C0 18.7053 18.7053 0 41.7795 0H138.221C161.295 0 180 18.7053 180 41.7795V138.221C180 161.295 161.295 180 138.221 180H41.7795C18.7053 180 0 161.295 0 138.221V41.7795Z" fill="#F9A81F"/>
<path d="M38.691 136.069C48.0832 138.53 57.6733 133.624 61.3378 124.931C60.2676 134.304 66.2188 143.283 75.611 145.744C85.0032 148.206 94.5933 143.299 98.2577 134.606C97.1876 143.979 103.139 152.958 112.531 155.42C122.831 158.119 133.37 151.957 136.069 141.657C138.43 132.647 134.011 123.455 125.973 119.487C134.925 119.971 143.283 114.128 145.645 105.118C148.311 94.9447 142.333 84.5394 132.262 81.6834L132.264 81.6758C142.441 84.1264 152.754 77.9903 155.42 67.8172C158.119 57.5169 151.957 46.9786 141.657 44.2793C132.265 41.8179 122.675 46.7241 119.01 55.4175C120.081 46.0443 114.129 37.0652 104.737 34.6038C95.3449 32.1425 85.7549 37.0487 82.0904 45.742C83.1606 36.3688 77.2094 27.3897 67.8172 24.9284C57.5169 22.229 46.9786 28.3908 44.2793 38.6911C41.8179 48.0833 46.7241 57.6733 55.4175 61.3378C46.0443 60.2676 37.0652 66.2188 34.6038 75.611C32.1425 85.0032 37.0487 94.5933 45.742 98.2578C36.3688 97.1876 27.3897 103.139 24.9284 112.531C22.229 122.831 28.3908 133.37 38.691 136.069Z" fill="#623908"/>
</svg>
